HIERARCHY
ROOT Hips
{
	OFFSET	0.00	0.00	0.00
	CHANNELS 6 Xposition Yposition Zposition Zrotation Xrotation Yrotation
	JOINT LeftUpLeg
	{
		OFFSET	 0.126116	-0.014019	-0.065224
		CHANNELS 3 Zrotation Xrotation Yrotation
		JOINT LeftLeg
		{
			OFFSET	 0.000000	 0.000000	 0.569914
			CHANNELS 3 Zrotation Xrotation Yrotation
			JOINT LeftFoot
			{
				OFFSET	 0.000000	 0.000000	 0.544423
				CHANNELS 3 Zrotation Xrotation Yrotation
				JOINT LeftToeBase
				{
					OFFSET	 0.000000	 0.000000	 0.207117
					CHANNELS 3 Zrotation Xrotation Yrotation
					End Site
					{
						OFFSET	 0.000000	 0.000000	 0.207117
					}
				}
			}
		}
	}
	JOINT RightUpLeg
	{
		OFFSET	-0.124023	-0.008373	-0.065224
		CHANNELS 3 Zrotation Xrotation Yrotation
		JOINT RightLeg
		{
			OFFSET	 0.000000	 0.000000	 0.570047
			CHANNELS 3 Zrotation Xrotation Yrotation
			JOINT RightFoot
			{
				OFFSET	 0.000000	 0.000000	 0.544354
				CHANNELS 3 Zrotation Xrotation Yrotation
				JOINT RightToeBase
				{
					OFFSET	 0.000000	 0.000000	 0.207540
					CHANNELS 3 Zrotation Xrotation Yrotation
					End Site
					{
						OFFSET	 0.000000	 0.000000	 0.207540
					}
				}
			}
		}
	}
	JOINT Spine
	{
		OFFSET	 0.000184	-0.007763	 0.117403
		CHANNELS 3 Zrotation Xrotation Yrotation
		JOINT Spine1
		{
			OFFSET	 0.000000	 0.000000	 0.137269
			CHANNELS 3 Zrotation Xrotation Yrotation
			JOINT Spine2
			{
				OFFSET	 0.000000	 0.000000	 0.156879
				CHANNELS 3 Zrotation Xrotation Yrotation
				JOINT LeftShoulder
				{
					OFFSET	 0.080501	-0.002496	 0.160144
					CHANNELS 3 Zrotation Xrotation Yrotation
					JOINT LeftArm
					{
						OFFSET	 0.000000	 0.000000	 0.164363
						CHANNELS 3 Zrotation Xrotation Yrotation
						JOINT LeftForeArm
						{
							OFFSET	 0.000000	 0.000000	 0.364576
							CHANNELS 3 Zrotation Xrotation Yrotation
							JOINT LeftHand
							{
								OFFSET	 0.000000	 0.000000	 0.360812
								CHANNELS 3 Zrotation Xrotation Yrotation
								JOINT LeftHandIndex1
								{
									OFFSET	 0.000000	 0.000000	 0.086006
									CHANNELS 3 Zrotation Xrotation Yrotation
									JOINT LeftHandIndex2
									{
										OFFSET	 0.000000	 0.000000	 0.047236
										CHANNELS 3 Zrotation Xrotation Yrotation
										JOINT LeftHandIndex3
										{
											OFFSET	-0.004284	-0.000551	 0.038166
											CHANNELS 3 Zrotation Xrotation Yrotation
											End Site
											{
												OFFSET	-0.004284	-0.000551	 0.038166
											}
										}
									}
								}
							}
						}
					}
				}
				JOINT Neck
				{
					OFFSET	 0.000000	 0.000000	 0.176489
					CHANNELS 3 Zrotation Xrotation Yrotation
					JOINT Head
					{
						OFFSET	 0.000000	-0.001747	 0.077940
						CHANNELS 3 Zrotation Xrotation Yrotation
						End Site
						{
							OFFSET	 0.000000	-0.001747	 0.077940
						}
					}
				}
				JOINT RightShoulder
				{
					OFFSET	-0.080363	 0.000306	 0.159706
					CHANNELS 3 Zrotation Xrotation Yrotation
					JOINT RightArm
					{
						OFFSET	 0.000000	 0.000000	 0.164196
						CHANNELS 3 Zrotation Xrotation Yrotation
						JOINT RightForeArm
						{
							OFFSET	 0.000000	 0.000000	 0.365611
							CHANNELS 3 Zrotation Xrotation Yrotation
							JOINT RightHand
							{
								OFFSET	 0.000000	 0.000000	 0.360648
								CHANNELS 3 Zrotation Xrotation Yrotation
								JOINT RightHandIndex1
								{
									OFFSET	 0.000000	 0.000000	 0.069977
									CHANNELS 3 Zrotation Xrotation Yrotation
									JOINT RightHandIndex2
									{
										OFFSET	 0.000000	 0.000000	 0.052305
										CHANNELS 3 Zrotation Xrotation Yrotation
										JOINT RightHandIndex3
										{
											OFFSET	 0.009002	-0.000782	 0.042196
											CHANNELS 3 Zrotation Xrotation Yrotation
											End Site
											{
												OFFSET	 0.009002	-0.000782	 0.042196
											}
										}
									}
								}
							}
						}
					}
				}
			}
		}
	}
}
MOTION
Frames:    10
Frame Time: 0.03333334
-0.000488	 0.017215	 1.305963	 0.003502	 0.004434	-0.132926	-17.572930	-1.818284	-179.113600	 1.470093	-12.208940	-0.713208	-3.269926	 65.047680	-3.192022	-2.385833	 28.452760	 0.000004	 17.446300	-2.384960	 179.397300	-1.445522	-13.075490	 0.751497	 3.270241	 65.292190	 3.023752	 2.384658	 28.388730	 0.000004	 3.072410	 2.760302	-0.056475	 1.574305	 3.567939	 0.633625	-4.734939	-4.448492	-1.033416	-91.776210	 78.527430	-180.000000	 65.253440	 44.805130	-46.492390	-7.903475	 3.482509	-8.733176	-30.124090	 0.989316	-4.226017	-2.635965	 4.993658	 6.788941	-5.165319	 0.784187	 3.516649	-5.225038	 0.466231	 0.424329	-0.000002	-3.783157	-0.089647	-4.598819	 4.894619	 0.196643	 89.782110	 78.203900	 180.000000	 9.665910	 13.289220	 84.692990	-33.661470	-4.809860	 14.477630	 5.001843	 0.234579	-6.110353	 6.112037	 4.509576	-0.364401	 4.968462	 1.518543	-9.347576	 5.168945	 0.703820	 2.021906
-0.000460	 0.017129	 1.307479	 0.003960	 0.006254	-0.112057	-17.564520	-1.826073	-179.133200	 1.469784	-12.233840	-0.714706	-3.292232	 64.819290	-3.163482	-2.385833	 28.452760	 0.000004	 17.436290	-2.370820	 179.382100	-1.446128	-13.030780	 0.748838	 3.286942	 65.028860	 3.000902	 2.384658	 28.388730	 0.000004	 2.615558	 2.754937	-0.035691	 1.342726	 3.569583	 0.545773	-4.036956	-4.479270	-0.884727	-91.776180	 78.527450	-180.000000	 65.201520	 44.769150	-46.297950	-7.890481	 3.565828	-8.944373	-30.031000	 1.905542	-4.204909	-2.635965	 4.993658	 6.788941	-5.165319	 0.784187	 3.516649	-5.225038	 0.466231	 0.424329	-0.000002	-3.783157	-0.089647	-3.918340	 4.957379	 0.169670	 89.782210	 78.203890	 179.999900	 9.675538	 13.414420	 84.679410	-33.751750	-4.854243	 14.530510	 5.082548	 1.076958	-6.173181	 6.112037	 4.509576	-0.364401	 4.968462	 1.518543	-9.347576	 5.168945	 0.703820	 2.021906
-0.000422	 0.017038	 1.309036	 0.004238	 0.007722	-0.088382	-17.555430	-1.838109	-179.154600	 1.469318	-12.269860	-0.716877	-3.314858	 64.589260	-3.134254	-2.385833	 28.452760	 0.000004	 17.425960	-2.355277	 179.364500	-1.446772	-12.982270	 0.745952	 3.303370	 64.756330	 2.977986	 2.384658	 28.388730	 0.000004	 2.081265	 2.749479	-0.010810	 1.071762	 3.572396	 0.442245	-3.219942	-4.510880	-0.709678	-91.776070	 78.527470	 179.999900	 65.163850	 44.717090	-46.096710	-7.874907	 3.662467	-9.189506	-29.927620	 2.926647	-4.184516	-2.635965	 4.993658	 6.788941	-5.165319	 0.784187	 3.516649	-5.225038	 0.466231	 0.424329	-0.000002	-3.783157	-0.089647	-3.122773	 5.017585	 0.136843	 89.782180	 78.203900	 179.999900	 9.694900	 13.564270	 84.665480	-33.852790	-4.904919	 14.592040	 5.180110	 2.006998	-6.244803	 6.112037	 4.509576	-0.364401	 4.968462	 1.518543	-9.347576	 5.168945	 0.703820	 2.021906
-0.000372	 0.016944	 1.310574	 0.004109	 0.008642	-0.062875	-17.545710	-1.854748	-179.176500	 1.468704	-12.317520	-0.719750	-3.337041	 64.365680	-3.105343	-2.385833	 28.452760	 0.000004	 17.415850	-2.338868	 179.345200	-1.447440	-12.932010	 0.742964	 3.319010	 64.483440	 2.955739	 2.384658	 28.388730	 0.000004	 1.494623	 2.746627	-0.015177	 0.772123	 3.572756	 0.387566	-2.324143	-4.536372	-0.544083	-91.776190	 78.527470	-180.000000	 65.146130	 44.654580	-45.905980	-7.857490	 3.769074	-9.460190	-29.820510	 3.957030	-4.167560	-2.635965	 4.993658	 6.788941	-5.165319	 0.784187	 3.516649	-5.225038	 0.466231	 0.424329	-0.000002	-3.783157	-0.089647	-2.249490	 5.067857	 0.099548	 89.782180	 78.203870	 179.999900	 9.704984	 13.750220	 84.645100	-33.963990	-4.960475	 14.657920	 5.295103	 2.984637	-6.312494	 6.112037	 4.509576	-0.364401	 4.968462	 1.518543	-9.347576	 5.168945	 0.703820	 2.021906
-0.000291	 0.016834	 1.312276	 0.001995	 0.010342	-0.025133	-17.532910	-1.877092	-179.209000	 1.467868	-12.383030	-0.723698	-3.361518	 64.123470	-3.073168	-2.385833	 28.452760	 0.000004	 17.406260	-2.316137	 179.316800	-1.448390	-12.859990	 0.738686	 3.335967	 64.171780	 2.931050	 2.384658	 28.388730	 0.000004	 0.797234	 2.741418	 0.029379	 0.420090	 3.574250	 0.208825	-1.252530	-4.559463	-0.292950	-91.776250	 78.527470	-180.000000	 65.163050	 44.586820	-45.754010	-7.838595	 3.880040	-9.742241	-29.703290	 5.012980	-4.155388	-2.635965	 4.993658	 6.788941	-5.165319	 0.784187	 3.516649	-5.225038	 0.466231	 0.424329	-0.000002	-3.783157	-0.089647	-1.209894	 5.106281	 0.053937	 89.782100	 78.203900	-180.000000	 9.659531	 13.884890	 84.595730	-34.084940	-5.025080	 14.740340	 4.990801	 4.160783	-6.371694	 6.112037	 4.509576	-0.364401	 4.968462	 1.518543	-9.347576	 5.168945	 0.703820	 2.021906
-0.000175	 0.016693	 1.314006	-0.000122	 0.011566	 0.014236	-17.519000	-1.903275	-179.242100	 1.466888	-12.458210	-0.728233	-3.386784	 63.864540	-3.039470	-2.385833	 28.452760	 0.000004	 17.395560	-2.291371	 179.286800	-1.449397	-12.783790	 0.734158	 3.352937	 63.836340	 2.905650	 2.384658	 28.388730	 0.000004	-0.024793	 2.738077	 0.089567	 0.065441	 3.574654	-0.001257	-0.050537	-4.570426	-0.006224	-91.776190	 78.527430	 180.000000	 65.229630	 44.525670	-45.661670	-7.816454	 4.006372	-10.063740	-29.588760	 5.882604	-4.152502	-2.635965	 4.993658	 6.788941	-5.165319	 0.784187	 3.516649	-5.225038	 0.466231	 0.424329	-0.000002	-3.783157	-0.089647	-0.044976	 5.121774	 0.001998	 89.782150	 78.203900	 180.000000	 9.610217	 14.067360	 84.690890	-34.019350	-4.926105	 14.515900	 4.180846	 5.252336	-6.387257	 6.112037	 4.509576	-0.364401	 4.968462	 1.518543	-9.347576	 5.168945	 0.703820	 2.021906
-0.000085	 0.016592	 1.315003	-0.001314	 0.010891	 0.035065	-17.510040	-1.924376	-179.257800	 1.466144	-12.515400	-0.731687	-3.402133	 63.708560	-3.018741	-2.385833	 28.452760	 0.000004	 17.388600	-2.279106	 179.270300	-1.449877	-12.747890	 0.732022	 3.363214	 63.633320	 2.890018	 2.384658	 28.388730	 0.000004	-0.474130	 2.737092	 0.114452	-0.222739	 3.576922	-0.106457	 0.700782	-4.570487	 0.161035	-91.776190	 78.527490	-180.000000	 65.299490	 44.496390	-45.642580	-7.800763	 4.093476	-10.285630	-29.529510	 6.189401	-4.156931	-2.635965	 4.993658	 6.788941	-5.165319	 0.784187	 3.516649	-5.225038	 0.466231	 0.424329	-0.000002	-3.783157	-0.089647	 0.684019	 5.116657	-0.030577	 89.782140	 78.203900	 180.000000	 9.575692	 14.224210	 84.826130	-33.813570	-4.762835	 14.219130	 3.583849	 5.660963	-6.367540	 6.112037	 4.509576	-0.364401	 4.968462	 1.518543	-9.347576	 5.168945	 0.703820	 2.021906
 0.000040	 0.016462	 1.316364	-0.002868	 0.008272	 0.058361	-17.497810	-1.957865	-179.272900	 1.464988	-12.603370	-0.736999	-3.422271	 63.507480	-2.991434	-2.385833	 28.452760	 0.000004	 17.379270	-2.266837	 179.250600	-1.450313	-12.714570	 0.730044	 3.376831	 63.370930	 2.869287	 2.384658	 28.388730	 0.000004	-1.111733	 2.737049	 0.160559	-0.545505	 3.581724	-0.256535	 1.679828	-4.562653	 0.384899	-91.776230	 78.527490	-180.000000	 65.427760	 44.470020	-45.670430	-7.778368	 4.215028	-10.595650	-29.473050	 6.197265	-4.170449	-2.635965	 4.993658	 6.788941	-5.165319	 0.784187	 3.516649	-5.225038	 0.466231	 0.424329	-0.000002	-3.783157	-0.089647	 1.633749	 5.092889	-0.072676	 89.782100	 78.203870	 180.000000	 9.130796	 14.657190	 84.555220	-32.975680	-4.629243	 14.522870	 3.173474	 5.498064	-6.299225	 6.112037	 4.509576	-0.364401	 4.968462	 1.518543	-9.347576	 5.168945	 0.703820	 2.021906
 0.000121	 0.017344	 1.317268	-0.003302	 0.007606	 0.084221	-17.494050	-1.993144	-179.295500	 1.464088	-12.671090	-0.741090	-3.436598	 63.442150	-2.973290	-2.385833	 28.452760	 0.000004	 17.376600	-2.294481	 179.243700	-1.450949	-12.665300	 0.727125	 3.402120	 63.211690	 2.836347	 2.384658	 28.388730	 0.000004	-1.789113	 2.737988	 0.166381	-0.891417	 3.580341	-0.334246	 2.715635	-4.542468	 0.583792	-91.776250	 78.527420	-180.000000	 65.636740	 44.467910	-45.849940	-7.760145	 4.311302	-10.841410	-29.449350	 5.497378	-4.195153	-2.635965	 4.993658	 6.788941	-5.165319	 0.784187	 3.516649	-5.225038	 0.466231	 0.424329	-0.000002	-3.783157	-0.089647	 2.642176	 5.046457	-0.116467	 89.782100	 78.203890	 180.000000	 7.068997	 15.324460	 83.595610	-31.542930	-4.577335	 15.677960	 3.405907	 4.263791	-6.177527	 6.112037	 4.509576	-0.364401	 4.968462	 1.518543	-9.347576	 5.168945	 0.703820	 2.021906
 0.000155	 0.018769	 1.317705	-0.002886	 0.006786	 0.102798	-17.496620	-2.028705	-179.313700	 1.463376	-12.724530	-0.744320	-3.445002	 63.491870	-2.964112	-2.385833	 28.452760	 0.000004	 17.379250	-2.349820	 179.249200	-1.451396	-12.630870	 0.725081	 3.431784	 63.164650	 2.800276	 2.384658	 28.388730	 0.000004	-2.337054	 2.739526	 0.197294	-1.169926	 3.579170	-0.439484	 3.554026	-4.518227	 0.763740	-91.776240	 78.527470	-180.000000	 65.891040	 44.491790	-46.142860	-7.748201	 4.372708	-10.998420	-29.470500	 4.110973	-4.223875	-2.635965	 4.993658	 6.788941	-5.165319	 0.784187	 3.516649	-5.225038	 0.466231	 0.424329	-0.000002	-3.783157	-0.089647	 3.457718	 4.992860	-0.150810	 89.782070	 78.203900	-180.000000	 3.575191	 16.563410	 83.354620	-30.149430	-4.001171	 15.121290	 4.085718	 2.204476	-6.006176	 6.112037	 4.509576	-0.364401	 4.968462	 1.518543	-9.347576	 5.168945	 0.703820	 2.021906
